<svg width="24" height="24" viewBox="0 0 24 24" fill="none" xmlns="http://www.w3.org/2000/svg">
<path d="M11.8459 3.00398C11.8843 3.00201 11.9228 3.00081 11.9612 3.00037C12.3583 2.99354 12.7515 3.08075 13.11 3.25516C13.4327 3.41262 13.9848 3.79885 14.3015 4.00722L16.3279 5.33827L18.8654 7.00412C19.4856 7.41409 20.1759 7.76544 20.5827 8.41002C20.9005 8.91344 20.9959 9.39261 20.9991 9.98155L20.9992 15.8933L20.9998 17.5643C20.9997 18.616 21.0353 19.3929 20.2453 20.2048C19.8917 20.569 19.444 20.823 18.9545 20.9373C18.6322 21.0098 18.1603 20.9982 17.8213 20.9984L16.6158 20.9984L12.1548 20.9981L7.52559 20.9976L6.23069 20.9992C5.88758 20.9995 5.43726 21.0098 5.10641 20.9465C4.67916 20.8625 4.27986 20.6689 3.94598 20.384C3.42207 19.9485 3.09023 19.3173 3.02429 18.6307C2.98366 18.1947 3.00625 17.372 3.00633 16.8985L3.00681 13.7016L3.0063 10.9928C3.00609 10.5686 2.98531 9.77555 3.04811 9.38608C3.12645 8.92171 3.32466 8.4871 3.62229 8.12706C3.98673 7.6785 4.97739 7.10224 5.48187 6.77131L8.04667 5.08837L9.79684 3.93871C10.5373 3.45122 10.9392 3.08783 11.8459 3.00398ZM8.40075 19.763C8.40461 19.2017 8.40562 18.6403 8.40377 18.079C8.40358 17.7105 8.39207 17.2752 8.42871 16.9156C8.51938 16.0707 8.89271 15.2835 9.48566 14.6871C10.2005 13.9697 11.1105 13.6311 12.1043 13.6427C12.1395 13.643 12.1746 13.6437 12.2097 13.6449C13.2393 13.7465 14.1087 14.1518 14.7731 14.9815C15.6033 16.018 15.6031 16.8619 15.6027 18.0975L15.6013 19.7608L17.4309 19.7655C18.1034 19.7659 18.8678 19.8808 19.3764 19.3512C19.7713 18.9399 19.798 18.5839 19.8 18.0319L19.7995 12.2978L19.7997 10.6485C19.7992 8.95609 19.7227 9.02437 18.3484 8.12363L16.4872 6.90349L13.9536 5.23992C13.6818 5.06107 13.4021 4.87949 13.1326 4.6981C12.6983 4.40586 12.389 4.18241 11.8452 4.24696C11.3092 4.31541 10.8375 4.72206 10.3852 5.01819L8.45879 6.281L6.05244 7.86163C5.64559 8.12876 5.23223 8.39545 4.83224 8.66436C4.50997 8.88099 4.24456 9.2789 4.22194 9.67788C4.19271 10.1933 4.20585 10.7397 4.2063 11.2577L4.20703 14.2983L4.20612 17.0915C4.20571 17.5672 4.18696 18.0922 4.22603 18.5639C4.28286 19.0937 4.76464 19.6364 5.28119 19.7217C5.71326 19.793 6.23075 19.7668 6.66901 19.7653C7.2441 19.7634 7.82875 19.7749 8.40075 19.763ZM9.60414 19.7608L12.2739 19.7641C12.9676 19.7642 13.7083 19.7784 14.3979 19.763L14.4029 18.1931C14.4047 17.1751 14.4686 16.3839 13.6991 15.5919C13.2546 15.1298 12.6459 14.8713 12.0118 14.8753C11.9581 14.8753 11.825 14.8815 11.7717 14.8907C11.0843 14.9742 10.563 15.2341 10.1203 15.7958C9.53619 16.5371 9.60247 17.2737 9.60313 18.1608C9.6035 18.6844 9.61027 19.2355 9.60414 19.7608Z" fill="#00E5A8" style="fill:#00E5A8;fill:color(display-p3 0.0000 0.8980 0.6588);fill-opacity:1;"/>
</svg>
