<svg width="24" height="24" viewBox="0 0 24 24" fill="none" xmlns="http://www.w3.org/2000/svg">
<path d="M20.9967 17.8896C20.9969 18.8418 20.9878 19.5262 20.3202 20.26C19.6381 21.0096 18.9482 21.0047 18.0981 20.9987C13.9662 20.9776 9.83362 20.9982 5.70159 20.9984C4.88761 20.9975 4.27533 20.9248 3.66048 20.2427C3.33266 19.8842 3.11576 19.421 3.04061 18.919C2.99421 18.6154 2.99857 18.0738 3.00191 17.6596C3.00269 17.5622 3.00342 17.4718 3.00342 17.3933L3.00316 5.66849C3.00766 4.89588 3.18151 4.27141 3.6928 3.71576C4.3755 2.97381 5.1834 2.98923 6.05227 3.00581C6.14765 3.00763 6.24375 3.00947 6.34051 3.01031L13.3023 3.01035C13.6876 3.01036 14 3.32275 14 3.7081C14 4.09311 13.6881 4.40536 13.3031 4.40584L5.4442 4.41563C5.0789 4.42183 4.82561 4.42614 4.54154 4.74336C4.24922 5.06979 4.25172 5.48047 4.25426 5.89541C4.25468 5.96458 4.25511 6.03386 4.25416 6.1029C4.25168 6.28545 4.25387 6.46956 4.25607 6.65371C4.25924 6.91951 4.26241 7.18538 4.2515 7.44672L4.25483 8.84684C4.2652 9.37525 4.26205 9.92904 4.25894 10.475C4.25745 10.7351 4.25598 10.9935 4.25599 11.2465L4.2563 15.902L4.25463 17.6652C4.25458 17.7433 4.25284 17.8239 4.25108 17.906C4.24042 18.4014 4.22863 18.9497 4.57704 19.2939C4.81703 19.5309 5.03535 19.5955 5.35034 19.5974C9.78948 19.6242 14.2303 19.6224 18.6696 19.5941C19.0332 19.5918 19.19 19.5124 19.4599 19.2581C19.57 19.0999 19.6909 18.9158 19.713 18.7129C19.7436 18.433 19.7421 18.1235 19.7408 17.8325C19.7405 17.7779 19.7402 17.724 19.7402 17.671L19.7387 16.0401L19.739 10.9062C19.739 10.5591 20.0203 10.2778 20.3674 10.2778C20.7145 10.2778 20.9959 10.5591 20.9959 10.9062L20.9967 17.8896Z" fill="white" style="fill:white;fill-opacity:1;"/>
<path fill-rule="evenodd" clip-rule="evenodd" d="M10.0839 8.00001C10.171 7.99996 10.2582 8.0001 10.3453 8.00053C10.7777 8.00269 11.1504 8.29494 11.2765 8.70862C11.876 10.6759 12.5985 12.655 13.2155 14.6368C13.3458 15.0554 13.0312 15.4767 12.5927 15.4773C12.2899 15.4777 12.0273 15.2705 11.9369 14.9815C11.8257 14.6262 11.7008 14.2869 11.5897 13.9227C11.5247 13.7098 11.3343 13.5564 11.1118 13.5524C10.4855 13.5411 9.85871 13.5456 9.23229 13.552C9.02483 13.5541 8.84091 13.6843 8.7804 13.8827C8.67857 14.2167 8.55626 14.666 8.46287 15.0251C8.39487 15.2866 8.20371 15.4776 7.93356 15.4818C7.4936 15.4888 7.15226 15.0432 7.28576 14.6239C7.55241 13.7864 7.80876 12.8891 8.05724 12.0949C8.40588 10.9806 8.77863 9.84199 9.12213 8.71756C9.25156 8.29386 9.64089 8.00024 10.0839 8.00001ZM11.113 12.1455C10.9206 11.6077 10.5982 10.5291 10.3773 9.8015C10.285 9.49745 10.0374 9.50934 9.95168 9.81531C9.72917 10.6092 9.50721 11.3953 9.24821 12.1767C9.20501 12.307 9.30159 12.4421 9.43889 12.4421L10.2638 12.4418C10.4698 12.4408 10.7009 12.4436 10.9216 12.4394C11.0655 12.4366 11.1614 12.281 11.113 12.1455Z" fill="white" style="fill:white;fill-opacity:1;"/>
<path d="M15.8005 14.8267V8.65797C15.8005 8.29546 15.5065 8.00165 15.144 8.00188C14.7814 8.00211 14.4878 8.29641 14.4883 8.65901L14.4981 14.8278C14.4986 15.187 14.7899 15.4779 15.1492 15.478C15.5089 15.4781 15.8005 15.1865 15.8005 14.8267Z" fill="white" style="fill:white;fill-opacity:1;"/>
<path d="M17.8573 3.85557C17.1867 4.52031 16.1303 4.80747 15.5074 4.92451C15.4589 4.93363 15.4593 5.06037 15.5078 5.06924C16.1315 5.18312 17.1891 5.46707 17.8573 6.14129C18.5265 6.81638 18.8127 7.87879 18.9282 8.50061C18.9372 8.54906 19.0621 8.54892 19.071 8.50045C19.1855 7.87774 19.4706 6.81367 20.143 6.14129C20.8128 5.47158 21.871 5.18599 22.4942 5.07061C22.5427 5.06163 22.5427 4.93524 22.4942 4.92626C21.871 4.81089 20.8128 4.52531 20.143 3.85557C19.4763 3.18882 19.1903 2.13771 19.0739 1.51388C19.0648 1.46533 18.9365 1.46547 18.9276 1.51403C18.8123 2.13875 18.5273 3.19149 17.8573 3.85557Z" fill="white" style="fill:white;fill-opacity:1;"/>
</svg>
