<svg width="24" height="24" viewBox="0 0 24 24" fill="none" xmlns="http://www.w3.org/2000/svg">
<path fill-rule="evenodd" clip-rule="evenodd" d="M2.75712 17.1979C2.11244 18.0683 2.27656 19.2449 2.92639 20.1115L3.42654 20.7784C3.99318 21.5341 4.8826 21.9788 5.82711 21.9786L18.2452 21.9769C19.1434 21.9768 20.001 21.5797 20.5721 20.8863C20.7999 20.6098 21.0268 20.327 21.2422 20.0399C21.8516 19.2274 21.8433 18.1224 21.2208 17.3199C18.964 14.4105 15.3753 12.6661 11.6631 12.7743C8.46852 12.8578 4.76557 14.4862 2.75712 17.1979ZM19.2955 20.2514C19.1039 20.5008 18.8078 20.6485 18.4933 20.6483L5.41564 20.6404C5.15276 20.6402 4.89736 20.5391 4.72741 20.3386C4.43408 19.9924 4.17563 19.6021 3.91379 19.2235C3.66591 18.8652 3.64477 18.3837 3.91434 18.0414C5.79724 15.6505 8.66226 14.2511 11.7295 14.1271C15.0344 14.0249 18.0358 15.5735 20.0826 18.0674C20.3487 18.3917 20.3542 18.852 20.1047 19.1893C19.8455 19.5396 19.5573 19.9107 19.2955 20.2514Z" fill="white" style="fill:white;fill-opacity:1;"/>
<path d="M11.6941 2.01007C14.2605 1.84258 16.4782 3.78422 16.6514 6.3503C16.8245 8.91636 14.8878 11.1383 12.3221 11.3171C9.74838 11.4965 7.51794 9.55243 7.34426 6.97831C7.17056 4.40422 9.11958 2.17809 11.6941 2.01007ZM12.3017 9.97643C14.1336 9.80837 15.4813 8.18562 15.3103 6.35407C15.1392 4.52252 13.5142 3.17741 11.683 3.35147C9.85596 3.52514 8.51465 5.14549 8.68531 6.97282C8.85598 8.80012 10.4741 10.1441 12.3017 9.97643Z" fill="white" style="fill:white;fill-opacity:1;"/>
</svg>
