<svg width="24" height="24" viewBox="0 0 24 24" fill="none" xmlns="http://www.w3.org/2000/svg">
<path d="M3.81315 4.68204C4.50618 4.64799 5.39173 4.67276 6.09505 4.6728L10.3711 4.67311L12.8906 4.67261C13.0528 4.67251 13.2142 4.66997 13.3772 4.67232C13.7038 4.67753 14.0457 4.65734 14.3688 4.70692C15.1485 4.8266 15.8184 5.47151 15.9525 6.25132C16.0306 6.70516 15.9771 7.17459 16.0064 7.63346L18.4093 6.56712C18.7493 6.41595 19.2764 6.16263 19.612 6.04328C20.056 5.88087 20.5466 5.90399 20.9734 6.10746C21.6094 6.41053 21.9774 7.00125 21.9852 7.70138C21.9913 8.25207 21.9911 8.80147 21.9912 9.35219L21.9915 12.473L21.991 15.0231C21.9909 15.5754 22.0579 16.5472 21.8274 17.0232C21.6147 17.4696 21.2306 17.8111 20.7623 17.9702C20.1576 18.1749 19.6886 18.0077 19.1457 17.738C18.9664 17.6975 18.1696 17.3003 17.9583 17.2043L16.7293 16.6465C16.5375 16.5603 16.1642 16.4056 16.0012 16.3052C15.9719 17.1233 16.1251 17.8558 15.5953 18.5523C15.3259 18.9064 14.8074 19.2608 14.3675 19.303C13.7893 19.3586 13.0966 19.336 12.5065 19.3358L9.11046 19.3358L5.61434 19.3361C4.99228 19.3367 4.33143 19.3609 3.71798 19.3098C2.91545 19.2488 2.10467 18.4867 2.03404 17.6763C1.98136 17.0717 2.00703 16.3815 2.0074 15.7657L2.00796 12.1299L2.00773 8.30906C2.00772 7.84173 1.97963 6.79235 2.0306 6.36576C2.07297 6.01891 2.21021 5.69046 2.42722 5.41658C2.7943 4.94697 3.23613 4.75098 3.81315 4.68204ZM13.9533 17.994C14.3566 17.9708 14.6389 17.7954 14.6546 17.3557C14.6738 16.8162 14.6641 16.2723 14.6638 15.732L14.6632 12.5708L14.6641 8.7108C14.6642 8.04913 14.6711 7.38625 14.6576 6.72489C14.6482 6.26344 14.4728 6.04547 14.0017 6.02495C13.5849 6.0068 13.177 6.01269 12.7603 6.01337L10.5466 6.01602L4.08673 6.01587C3.63239 6.03748 3.35736 6.16453 3.3449 6.67667C3.3314 7.23079 3.34033 7.78812 3.34052 8.34272L3.34077 11.7134L3.33997 15.4228C3.33987 16.053 3.33591 16.6826 3.34546 17.3134C3.35123 17.6949 3.53536 17.9581 3.94068 17.9836C4.32989 18.0081 4.72746 17.9962 5.11817 17.9958L7.28295 17.9941L13.9533 17.994ZM16.005 9.10996C15.9845 9.41266 15.995 9.78145 15.9953 10.0919L15.9959 11.7188L15.9958 13.7621C15.9958 14.099 15.9849 14.5121 15.9995 14.8442C16.5362 15.0936 17.0745 15.3396 17.6144 15.582L19.1902 16.298C19.488 16.4341 19.8021 16.5928 20.1148 16.6924C20.1989 16.7192 20.3065 16.7074 20.387 16.6771C20.5851 16.6056 20.6512 16.3941 20.654 16.2009C20.661 15.7255 20.658 15.2497 20.6582 14.7741L20.6588 12.0395L20.6587 9.31215C20.6586 8.88466 20.7023 7.80189 20.589 7.45627C20.4453 7.319 20.3648 7.28222 20.1624 7.28062C19.9735 7.31906 18.9538 7.78495 18.7228 7.8915C17.8312 8.30273 16.8877 8.68807 16.005 9.10996Z" fill="white" style="fill:white;fill-opacity:1;"/>
<path d="M11.2641 7.34504C11.6306 7.32027 12.7295 7.28004 13.008 7.44212C13.1578 7.52931 13.2659 7.66812 13.3079 7.83693C13.3518 8.01493 13.3208 8.20318 13.2221 8.35768C13.1072 8.54054 12.9573 8.62238 12.7531 8.66644C12.468 8.68353 11.4414 8.70127 11.202 8.65321C11.1078 8.63503 11.0186 8.59753 10.9397 8.54303C10.4489 8.20769 10.6305 7.45317 11.2641 7.34504Z" fill="white" style="fill:white;fill-opacity:1;"/>
</svg>
