<svg width="24" height="24" viewBox="0 0 24 24" fill="none" xmlns="http://www.w3.org/2000/svg">
<path d="M17.0098 3.5C17.034 3.49867 17.0627 3.50714 17.0879 3.53223V3.5332C17.1196 3.56463 17.1299 3.58644 17.1377 3.61816C17.1504 3.67027 17.1542 3.73577 17.1582 3.88184L17.1719 4.38281L17.6719 4.36816L17.8076 4.36621C18.8217 4.36122 19.4013 4.32799 19.9668 4.91895L19.9688 4.92188C20.1933 5.15349 20.3548 5.44686 20.4336 5.77051L20.4619 5.91113C20.5147 6.22782 20.4967 6.83579 20.4961 7.28516V7.28613L20.4951 9.55469L20.4971 18.0391L20.4951 18.3643C20.4906 18.6667 20.4744 18.9082 20.4219 19.1309C20.357 19.4057 20.2323 19.6641 19.959 19.9502C19.4038 20.5311 18.8994 20.5013 17.9346 20.498H5.70117C5.30074 20.4976 5.00644 20.4798 4.74902 20.4033C4.50647 20.3312 4.27414 20.2004 4.02344 19.9355L4.02148 19.9326L3.92969 19.8291C3.72504 19.5796 3.58636 19.2732 3.53418 18.9414V18.9395C3.5123 18.8029 3.50312 18.5727 3.50098 18.3018C3.49883 18.03 3.50294 17.781 3.50293 17.5664V6.40723C3.50687 5.76304 3.65371 5.30544 4.05273 4.89258C4.62914 4.29619 5.27521 4.36418 6.33594 4.37305L6.82129 4.37695L6.83984 3.89258C6.84417 3.78373 6.85136 3.7035 6.8623 3.64062C6.87304 3.57902 6.88515 3.5511 6.89062 3.54102C6.89322 3.53628 6.89297 3.53648 6.89648 3.53418C6.90254 3.53025 6.92274 3.52033 6.9668 3.50879C7.0197 3.51075 7.04264 3.51758 7.04688 3.51953C7.04767 3.51974 7.04768 3.5193 7.05176 3.52539C7.05951 3.53702 7.0756 3.56772 7.08984 3.63184C7.10409 3.69598 7.11295 3.77893 7.11621 3.88379L7.13281 4.39258L7.64062 4.36816C7.9001 4.35564 8.25927 4.3718 8.58203 4.37207H10.6689L16.3818 4.37305H16.8652L16.8818 3.88965C16.8907 3.62783 16.91 3.57617 16.9492 3.53027L16.9502 3.5293C16.9681 3.50821 16.988 3.50067 17.0029 3.5V3.50098L17.0098 3.5ZM3.75488 9.44043C3.77006 10.1768 3.75584 10.9555 3.75586 11.7148V16.1465L3.75488 17.8252C3.7547 18.0359 3.73292 18.3971 3.7666 18.707C3.80262 19.0379 3.90779 19.4331 4.23438 19.7402C4.39541 19.8917 4.56802 20.0053 4.76855 20.0762C4.96475 20.1455 5.1599 20.164 5.34766 20.165L6.75684 20.1631H15.7061C16.6901 20.1632 17.6839 20.1681 18.6729 20.1621C18.8877 20.1608 19.0908 20.1372 19.293 20.0527C19.4899 19.9704 19.647 19.8456 19.7939 19.7139L19.833 19.6787L19.8633 19.6367C19.9638 19.4992 20.1706 19.223 20.21 18.8799C20.2504 18.5266 20.2405 18.1291 20.2402 17.8301L20.2383 16.2783L20.2393 11.7441C20.2394 10.9956 20.2156 10.1542 20.2412 9.45508L20.2598 8.94043L19.7451 8.93652C18.4195 8.92685 17.0932 8.92422 15.7676 8.92871H8.75586L5.7041 8.92969H5.70312L4.78906 8.93066H4.78613C4.58892 8.93201 4.42104 8.94199 4.29688 8.93164L3.74316 8.88477L3.75488 9.44043ZM7.11914 5.17383C7.11254 5.32469 7.10705 5.39768 7.0918 5.45508C7.08173 5.49282 7.06917 5.51869 7.03418 5.55176L7.03027 5.55469C7.01044 5.57368 6.98941 5.57944 6.97168 5.5791C6.95711 5.57699 6.92481 5.56448 6.90137 5.53418C6.86734 5.48994 6.86134 5.46724 6.85742 5.44629C6.85429 5.42945 6.85111 5.4052 6.84961 5.36523C6.84799 5.32174 6.84893 5.27606 6.84863 5.20703L6.8457 4.70215L6.34082 4.70996C6.20586 4.71196 6.06295 4.70878 5.90723 4.70703L5.44141 4.71094C5.27433 4.71351 5.05465 4.71423 4.8418 4.77051C4.59634 4.83543 4.38031 4.96532 4.17773 5.18066C3.91342 5.46167 3.81352 5.78142 3.77637 6.07031C3.74328 6.32809 3.75648 6.63106 3.75391 6.81055C3.747 7.29364 3.77064 7.64922 3.75195 8.0752L3.72949 8.58398L4.23926 8.59668C5.97968 8.63879 7.85808 8.60451 9.58594 8.60449H20.2822L20.2402 8.06641C20.2271 7.89605 20.2344 7.70035 20.2373 7.47852V7.47461L20.2412 6.74121C20.2425 6.36031 20.3011 5.69342 19.8076 5.16211C19.4709 4.79962 19.0398 4.71908 18.6992 4.7041C18.53 4.69667 18.3605 4.70468 18.2207 4.71094C18.0713 4.71762 17.9547 4.72234 17.8516 4.7168C17.8036 4.71422 17.7898 4.71191 17.7676 4.70703L17.1865 4.5791L17.1602 5.17383C17.1537 5.32462 17.149 5.39778 17.1338 5.45508C17.1238 5.49285 17.1103 5.5186 17.0752 5.55176L17.0723 5.55469C17.0526 5.57359 17.0314 5.57929 17.0137 5.5791C16.9994 5.57729 16.9662 5.56502 16.9424 5.53418C16.9084 5.48998 16.9023 5.4672 16.8984 5.44629C16.8953 5.42946 16.8931 5.40514 16.8916 5.36523C16.89 5.32177 16.8899 5.27603 16.8896 5.20703L16.8877 4.70215L16.3818 4.70996C16.0529 4.71501 15.7206 4.71394 15.3857 4.71191L14.375 4.70605H10.0576L8.41895 4.70801H8.41797C8.36549 4.70821 8.29581 4.71041 8.22656 4.71191C8.15459 4.71348 8.07771 4.7153 8.00293 4.71582C7.92773 4.71635 7.8594 4.71523 7.80371 4.71289C7.75953 4.71103 7.7365 4.70875 7.72949 4.70801L7.14551 4.57617L7.11914 5.17383Z" fill="white" stroke="white" style="fill:white;fill-opacity:1;stroke:white;stroke-opacity:1;"/>
</svg>
